<mxfile host="app.diagrams.net" modified="2024-05-19T13:32:15.360Z" agent="Mozilla/5.0 (Windows NT 10.0; Win64; x64) AppleWebKit/537.36 (KHTML, like Gecko) Chrome/125.0.0.0 Safari/537.36" etag="XqVHyFOV4W2AxoVrEULL" version="24.4.4" type="github">
  <diagram name="Seite-1" id="ijxSJY4iW0NVXkuyTtQ2">
    <mxGraphModel dx="1221" dy="618" grid="1" gridSize="10" guides="1" tooltips="1" connect="1" arrows="1" fold="1" page="1" pageScale="1" pageWidth="840" pageHeight="1000" math="0" shadow="0">
      <root>
        <mxCell id="0" />
        <mxCell id="1" parent="0" />
        <mxCell id="voA5N1quLIx8qBJNOCc8-8" value="" style="fontStyle=0;dashed=1;html=1;whiteSpace=wrap;fontFamily=Helvetica;fontSize=11;fontColor=default;labelBackgroundColor=none;textOpacity=0;fillColor=none;" parent="1" vertex="1">
          <mxGeometry x="420" y="207" width="334.69" height="260" as="geometry" />
        </mxCell>
        <mxCell id="tlcZT1eQ2LUNHYH_i1Qd-1" value="Schicht erstellen" style="shape=umlFrame;whiteSpace=wrap;html=1;pointerEvents=0;width=110;height=30;" parent="1" vertex="1">
          <mxGeometry x="130" y="40" width="660" height="700" as="geometry" />
        </mxCell>
        <mxCell id="tlcZT1eQ2LUNHYH_i1Qd-50" style="edgeStyle=orthogonalEdgeStyle;rounded=0;orthogonalLoop=1;jettySize=auto;html=1;endArrow=open;endFill=0;" parent="1" source="tlcZT1eQ2LUNHYH_i1Qd-2" target="tlcZT1eQ2LUNHYH_i1Qd-7" edge="1">
          <mxGeometry relative="1" as="geometry" />
        </mxCell>
        <mxCell id="tlcZT1eQ2LUNHYH_i1Qd-2" value="" style="ellipse;html=1;shape=startState;fillColor=#000000;strokeColor=#000000;" parent="1" vertex="1">
          <mxGeometry x="287.25" y="89.5" width="30" height="30" as="geometry" />
        </mxCell>
        <mxCell id="tlcZT1eQ2LUNHYH_i1Qd-16" style="edgeStyle=orthogonalEdgeStyle;rounded=0;orthogonalLoop=1;jettySize=auto;html=1;entryX=0.5;entryY=0;entryDx=0;entryDy=0;endArrow=open;endFill=0;" parent="1" source="tlcZT1eQ2LUNHYH_i1Qd-6" target="tlcZT1eQ2LUNHYH_i1Qd-11" edge="1">
          <mxGeometry relative="1" as="geometry" />
        </mxCell>
        <mxCell id="tlcZT1eQ2LUNHYH_i1Qd-6" value="Start festlegen" style="rounded=1;whiteSpace=wrap;html=1;" parent="1" vertex="1">
          <mxGeometry x="254.5" y="273" width="95" height="38" as="geometry" />
        </mxCell>
        <mxCell id="tlcZT1eQ2LUNHYH_i1Qd-8" style="edgeStyle=orthogonalEdgeStyle;rounded=0;orthogonalLoop=1;jettySize=auto;html=1;entryX=0.5;entryY=0;entryDx=0;entryDy=0;endArrow=open;endFill=0;" parent="1" source="tlcZT1eQ2LUNHYH_i1Qd-7" target="tlcZT1eQ2LUNHYH_i1Qd-6" edge="1">
          <mxGeometry relative="1" as="geometry" />
        </mxCell>
        <mxCell id="tlcZT1eQ2LUNHYH_i1Qd-22" style="edgeStyle=orthogonalEdgeStyle;rounded=0;orthogonalLoop=1;jettySize=auto;html=1;entryX=0.519;entryY=0.217;entryDx=0;entryDy=0;endArrow=open;endFill=0;entryPerimeter=0;" parent="1" source="tlcZT1eQ2LUNHYH_i1Qd-7" target="voA5N1quLIx8qBJNOCc8-2" edge="1">
          <mxGeometry relative="1" as="geometry">
            <mxPoint x="540" y="210.5" as="targetPoint" />
          </mxGeometry>
        </mxCell>
        <mxCell id="tlcZT1eQ2LUNHYH_i1Qd-7" value="" style="rhombus;whiteSpace=wrap;html=1;" parent="1" vertex="1">
          <mxGeometry x="277.25" y="152.5" width="50" height="50" as="geometry" />
        </mxCell>
        <mxCell id="tlcZT1eQ2LUNHYH_i1Qd-10" value="t채glich&amp;nbsp;&lt;div&gt;gleich?&lt;/div&gt;" style="text;html=1;align=center;verticalAlign=middle;resizable=0;points=[];autosize=1;strokeColor=none;fillColor=none;" parent="1" vertex="1">
          <mxGeometry x="233" y="132.5" width="60" height="40" as="geometry" />
        </mxCell>
        <mxCell id="aRmx6RTmCWR96EIn4hH9-3" style="edgeStyle=orthogonalEdgeStyle;rounded=0;orthogonalLoop=1;jettySize=auto;html=1;endArrow=open;endFill=0;" parent="1" source="tlcZT1eQ2LUNHYH_i1Qd-11" target="tlcZT1eQ2LUNHYH_i1Qd-13" edge="1">
          <mxGeometry relative="1" as="geometry" />
        </mxCell>
        <mxCell id="tlcZT1eQ2LUNHYH_i1Qd-11" value="Ende festlegen" style="rounded=1;whiteSpace=wrap;html=1;" parent="1" vertex="1">
          <mxGeometry x="254.5" y="360" width="95" height="38" as="geometry" />
        </mxCell>
        <mxCell id="voA5N1quLIx8qBJNOCc8-9" style="edgeStyle=orthogonalEdgeStyle;rounded=0;orthogonalLoop=1;jettySize=auto;html=1;entryX=0.5;entryY=0;entryDx=0;entryDy=0;strokeColor=default;align=center;verticalAlign=middle;fontFamily=Helvetica;fontSize=11;fontColor=default;labelBackgroundColor=default;endArrow=open;endFill=0;" parent="1" source="tlcZT1eQ2LUNHYH_i1Qd-12" target="tlcZT1eQ2LUNHYH_i1Qd-32" edge="1">
          <mxGeometry relative="1" as="geometry" />
        </mxCell>
        <mxCell id="tlcZT1eQ2LUNHYH_i1Qd-12" value="Zuschlagsf&lt;span style=&quot;background-color: initial;&quot;&gt;enster festlegen&lt;/span&gt;" style="rounded=1;whiteSpace=wrap;html=1;" parent="1" vertex="1">
          <mxGeometry x="245.75" y="583" width="112.5" height="50" as="geometry" />
        </mxCell>
        <mxCell id="tlcZT1eQ2LUNHYH_i1Qd-15" style="edgeStyle=orthogonalEdgeStyle;rounded=0;orthogonalLoop=1;jettySize=auto;html=1;entryX=0.5;entryY=0;entryDx=0;entryDy=0;endArrow=open;endFill=0;exitX=0.5;exitY=1;exitDx=0;exitDy=0;" parent="1" source="tlcZT1eQ2LUNHYH_i1Qd-13" target="tlcZT1eQ2LUNHYH_i1Qd-12" edge="1">
          <mxGeometry relative="1" as="geometry" />
        </mxCell>
        <mxCell id="tlcZT1eQ2LUNHYH_i1Qd-13" value="" style="rhombus;whiteSpace=wrap;html=1;" parent="1" vertex="1">
          <mxGeometry x="277" y="467" width="50" height="50" as="geometry" />
        </mxCell>
        <mxCell id="voA5N1quLIx8qBJNOCc8-7" style="edgeStyle=orthogonalEdgeStyle;rounded=0;orthogonalLoop=1;jettySize=auto;html=1;exitX=0.5;exitY=1;exitDx=0;exitDy=0;entryX=0.5;entryY=0;entryDx=0;entryDy=0;strokeColor=default;align=center;verticalAlign=middle;fontFamily=Helvetica;fontSize=11;fontColor=default;labelBackgroundColor=default;endArrow=open;endFill=0;" parent="1" source="tlcZT1eQ2LUNHYH_i1Qd-21" target="voA5N1quLIx8qBJNOCc8-6" edge="1">
          <mxGeometry relative="1" as="geometry" />
        </mxCell>
        <mxCell id="tlcZT1eQ2LUNHYH_i1Qd-21" value="Individuelle Schicht erstellen" style="rounded=1;whiteSpace=wrap;html=1;" parent="1" vertex="1">
          <mxGeometry x="443" y="312" width="125" height="50" as="geometry" />
        </mxCell>
        <mxCell id="tlcZT1eQ2LUNHYH_i1Qd-23" value="Zuschl채ge?" style="text;html=1;align=center;verticalAlign=middle;resizable=0;points=[];autosize=1;strokeColor=none;fillColor=none;" parent="1" vertex="1">
          <mxGeometry x="302" y="450" width="90" height="30" as="geometry" />
        </mxCell>
        <mxCell id="tlcZT1eQ2LUNHYH_i1Qd-29" value="[nein]" style="text;html=1;align=center;verticalAlign=middle;resizable=0;points=[];autosize=1;strokeColor=none;fillColor=none;" parent="1" vertex="1">
          <mxGeometry x="349.5" y="152.5" width="50" height="30" as="geometry" />
        </mxCell>
        <mxCell id="tlcZT1eQ2LUNHYH_i1Qd-30" value="[ja]" style="text;html=1;align=center;verticalAlign=middle;resizable=0;points=[];autosize=1;strokeColor=none;fillColor=none;" parent="1" vertex="1">
          <mxGeometry x="293" y="213.5" width="40" height="30" as="geometry" />
        </mxCell>
        <mxCell id="tlcZT1eQ2LUNHYH_i1Qd-32" value="" style="ellipse;html=1;shape=endState;fillColor=strokeColor;" parent="1" vertex="1">
          <mxGeometry x="287" y="680" width="30" height="30" as="geometry" />
        </mxCell>
        <mxCell id="tlcZT1eQ2LUNHYH_i1Qd-34" value="[ja]" style="text;html=1;align=center;verticalAlign=middle;resizable=0;points=[];autosize=1;strokeColor=none;fillColor=none;" parent="1" vertex="1">
          <mxGeometry x="298" y="529" width="40" height="30" as="geometry" />
        </mxCell>
        <mxCell id="tlcZT1eQ2LUNHYH_i1Qd-35" value="[nein]" style="text;html=1;align=center;verticalAlign=middle;resizable=0;points=[];autosize=1;strokeColor=none;fillColor=none;" parent="1" vertex="1">
          <mxGeometry x="214" y="467" width="50" height="30" as="geometry" />
        </mxCell>
        <mxCell id="tlcZT1eQ2LUNHYH_i1Qd-52" style="edgeStyle=orthogonalEdgeStyle;rounded=0;orthogonalLoop=1;jettySize=auto;html=1;entryX=0.5;entryY=0;entryDx=0;entryDy=0;endArrow=open;endFill=0;exitX=0.5;exitY=1;exitDx=0;exitDy=0;" parent="1" source="tlcZT1eQ2LUNHYH_i1Qd-41" target="tlcZT1eQ2LUNHYH_i1Qd-51" edge="1">
          <mxGeometry relative="1" as="geometry">
            <mxPoint x="592.98" y="482" as="sourcePoint" />
          </mxGeometry>
        </mxCell>
        <mxCell id="tlcZT1eQ2LUNHYH_i1Qd-41" value="Individuelle Schicht ausw채hlen" style="rounded=1;whiteSpace=wrap;html=1;" parent="1" vertex="1">
          <mxGeometry x="590" y="312" width="126" height="50" as="geometry" />
        </mxCell>
        <mxCell id="tlcZT1eQ2LUNHYH_i1Qd-51" value="Tage ausw채hlen" style="rounded=1;whiteSpace=wrap;html=1;" parent="1" vertex="1">
          <mxGeometry x="603" y="404.5" width="100" height="38" as="geometry" />
        </mxCell>
        <mxCell id="tlcZT1eQ2LUNHYH_i1Qd-54" style="edgeStyle=orthogonalEdgeStyle;rounded=0;orthogonalLoop=1;jettySize=auto;html=1;entryX=1;entryY=0.5;entryDx=0;entryDy=0;endArrow=open;endFill=0;exitX=0.5;exitY=1;exitDx=0;exitDy=0;" parent="1" source="tlcZT1eQ2LUNHYH_i1Qd-51" target="tlcZT1eQ2LUNHYH_i1Qd-13" edge="1">
          <mxGeometry relative="1" as="geometry">
            <mxPoint x="611" y="539.5" as="targetPoint" />
          </mxGeometry>
        </mxCell>
        <mxCell id="aRmx6RTmCWR96EIn4hH9-4" value="" style="strokeWidth=1;html=1;shape=mxgraph.flowchart.annotation_2;align=left;labelPosition=right;pointerEvents=1;rotation=90;" parent="1" vertex="1">
          <mxGeometry x="548.5" y="342" width="9" height="11" as="geometry" />
        </mxCell>
        <mxCell id="aRmx6RTmCWR96EIn4hH9-5" value="" style="endArrow=none;html=1;rounded=0;entryX=0.519;entryY=0.49;entryDx=0;entryDy=0;entryPerimeter=0;exitX=1;exitY=0.5;exitDx=0;exitDy=0;exitPerimeter=0;strokeWidth=1;" parent="1" source="aRmx6RTmCWR96EIn4hH9-4" target="aRmx6RTmCWR96EIn4hH9-4" edge="1">
          <mxGeometry width="50" height="50" relative="1" as="geometry">
            <mxPoint x="109" y="472" as="sourcePoint" />
            <mxPoint x="172" y="502" as="targetPoint" />
          </mxGeometry>
        </mxCell>
        <mxCell id="voA5N1quLIx8qBJNOCc8-3" style="edgeStyle=orthogonalEdgeStyle;rounded=0;orthogonalLoop=1;jettySize=auto;html=1;exitX=0.25;exitY=0.5;exitDx=0;exitDy=0;exitPerimeter=0;entryX=0.5;entryY=0;entryDx=0;entryDy=0;strokeColor=default;align=center;verticalAlign=middle;fontFamily=Helvetica;fontSize=11;fontColor=default;labelBackgroundColor=default;endArrow=open;endFill=0;" parent="1" source="voA5N1quLIx8qBJNOCc8-2" target="tlcZT1eQ2LUNHYH_i1Qd-21" edge="1">
          <mxGeometry relative="1" as="geometry" />
        </mxCell>
        <mxCell id="voA5N1quLIx8qBJNOCc8-4" style="edgeStyle=orthogonalEdgeStyle;rounded=0;orthogonalLoop=1;jettySize=auto;html=1;exitX=0.75;exitY=0.5;exitDx=0;exitDy=0;exitPerimeter=0;entryX=0.5;entryY=0;entryDx=0;entryDy=0;strokeColor=default;align=center;verticalAlign=middle;fontFamily=Helvetica;fontSize=11;fontColor=default;labelBackgroundColor=default;endArrow=open;endFill=0;" parent="1" source="voA5N1quLIx8qBJNOCc8-2" target="tlcZT1eQ2LUNHYH_i1Qd-41" edge="1">
          <mxGeometry relative="1" as="geometry" />
        </mxCell>
        <mxCell id="voA5N1quLIx8qBJNOCc8-2" value="" style="shape=line;html=1;strokeWidth=6;strokeColor=#000000;fillColor=#000000;fontFamily=Helvetica;fontSize=11;fontColor=default;labelBackgroundColor=default;" parent="1" vertex="1">
          <mxGeometry x="432" y="252.5" width="294.11" height="10" as="geometry" />
        </mxCell>
        <mxCell id="voA5N1quLIx8qBJNOCc8-6" value="" style="shape=sumEllipse;perimeter=ellipsePerimeter;html=1;backgroundOutline=1;fontFamily=Helvetica;fontSize=11;fontColor=default;labelBackgroundColor=default;" parent="1" vertex="1">
          <mxGeometry x="490.5" y="392" width="30" height="30" as="geometry" />
        </mxCell>
        <mxCell id="voA5N1quLIx8qBJNOCc8-10" value="&amp;lt;&amp;lt;loop&amp;gt;&amp;gt;" style="text;html=1;align=center;verticalAlign=middle;resizable=0;points=[];autosize=1;strokeColor=none;fillColor=none;fontFamily=Helvetica;fontSize=11;fontColor=default;labelBackgroundColor=default;" parent="1" vertex="1">
          <mxGeometry x="691" y="205.5" width="70" height="30" as="geometry" />
        </mxCell>
      </root>
    </mxGraphModel>
  </diagram>
</mxfile>
